<svg viewBox="0 0 220.2 44.1" xmlns="http://www.w3.org/2000/svg" xmlns:xlink="http://www.w3.org/1999/xlink" id="paginación" overflow="hidden"><defs></defs><g id="Capa_1-2"><path d="M54.7 26.4 52.6 26.4C52.1 26.4 51.8 26 51.8 25.5 51.8 25 52.2 24.7 52.6 24.7L54.7 24.7 54.7 22.8C54.7 20.6 55.3 18.9 56.4 17.9 57.4 16.9 58.7 16.4 60.4 16.4 62.1 16.4 62 16.5 62.7 16.7 63.1 16.7 63.4 17.1 63.4 17.5 63.4 17.9 62.9 18.4 62.4 18.3 61.8 18.2 61.2 18.1 60.5 18.1 57.9 18.1 56.7 19.7 56.7 22.9L56.7 24.7 62.6 24.7C63.1 24.7 63.5 25.1 63.5 25.5 63.5 25.9 63.1 26.3 62.6 26.3L56.7 26.3 56.7 42.8C56.7 43.3 56.3 43.7 55.8 43.7 55.3 43.7 54.9 43.3 54.9 42.8L54.9 26.3 54.9 26.3C54.9 26.3 54.9 26.3 54.9 26.3Z" fill="#FFFFFF"/><path d="M79 33.3C78.7 29.5 76.5 25.9 72.2 25.9 67.9 25.9 65.6 29.1 65.2 33.3L79 33.3ZM72.6 44.1C67.6 44.1 63.3 40.1 63.3 34.2L63.3 34.2C63.3 28.6 67.2 24.3 72.3 24.3 77.4 24.3 81 28.7 81 34.1 81 39.5 80.6 35 80.1 35L65.2 35C65.5 39.7 68.9 42.5 72.6 42.5 76.3 42.5 77.2 41.4 78.7 39.9 78.9 39.8 79 39.6 79.3 39.6 79.8 39.6 80.2 40 80.2 40.4 80.2 40.8 80.2 40.8 79.9 41 78 42.9 75.9 44.1 72.5 44.1" fill="#FFFFFF"/><path d="M85.7 34.1 85.7 34.1C85.7 39.1 89.2 42.3 93.1 42.3 97 42.3 100.8 39 100.8 34.2L100.8 34.2C100.8 29.3 97 26 93.1 26 89.2 26 85.7 29 85.7 34.1M102.5 42.8C102.5 43.4 102.1 43.7 101.6 43.7 101.1 43.7 100.7 43.3 100.7 42.8L100.7 39.3C99.1 41.8 96.7 44 92.9 44 89.1 44 83.7 40.3 83.7 34.2L83.7 34.2C83.7 28 88.3 24.2 92.9 24.2 97.5 24.2 99.1 26.4 100.7 28.7L100.7 17.2C100.7 16.6 101.1 16.3 101.6 16.3 102.1 16.3 102.5 16.7 102.5 17.2L102.5 42.8 102.5 42.8Z" fill="#FFFFFF"/><path d="M121.2 33.3C120.9 29.5 118.7 25.9 114.4 25.9 110.1 25.9 107.8 29.1 107.4 33.3L121.2 33.3 121.2 33.3ZM114.8 44.1C109.8 44.1 105.5 40.1 105.5 34.2L105.5 34.2C105.5 28.6 109.4 24.3 114.5 24.3 119.6 24.3 123.2 28.7 123.2 34.1 123.2 39.5 122.8 35 122.3 35L107.4 35C107.7 39.7 111.1 42.5 114.8 42.5 118.5 42.5 119.4 41.4 120.9 39.9 121 39.8 121.2 39.6 121.5 39.6 122 39.6 122.4 40 122.4 40.4 122.4 40.8 122.4 40.8 122.1 41 120.2 42.9 118.1 44.1 114.7 44.1" fill="#FFFFFF"/><path d="M127 27.9 126.2 27.9C125.2 27.9 124.3 27.1 124.3 26.1 124.3 25.1 125.2 24.2 126.2 24.2L127 24.2 127 22.8C127 20.6 127.6 19 128.6 18 129.6 17 131.1 16.4 133 16.4 134.9 16.4 134.6 16.4 135.3 16.6 136.1 16.7 136.9 17.4 136.9 18.5 136.9 19.6 136 20.4 135 20.4 134.7 20.4 134.4 20.4 134.1 20.4 132.4 20.4 131.5 21.3 131.5 23.4L131.5 24.5 135 24.5C136.1 24.5 136.9 25.3 136.9 26.4 136.9 27.5 136 28.2 135 28.2L131.6 28.2 131.6 41.9C131.6 43.1 130.6 44.1 129.3 44.1 128 44.1 127.1 43.1 127.1 41.9L127.1 28.2 127.1 28.2Z" fill="#FFFFFF"/><path d="M150.6 36.6 150.6 35.3C149.5 34.9 147.9 34.5 146.1 34.5 143.2 34.5 141.5 35.7 141.5 37.8L141.5 37.8C141.5 39.8 143.2 40.8 145.3 40.8 147.4 40.8 150.5 39.1 150.5 36.6M137.2 38 137.2 38C137.2 33.7 140.5 31.6 145.3 31.6 150.1 31.6 149 31.9 150.6 32.4L150.6 31.9C150.6 29.1 148.9 27.6 145.7 27.6 142.5 27.6 142.6 27.9 141.4 28.4 141.1 28.4 140.9 28.5 140.7 28.5 139.6 28.5 138.8 27.7 138.8 26.6 138.8 25.5 139.4 25.1 140 24.8 141.9 24.1 143.7 23.7 146.3 23.7 148.9 23.7 151.4 24.5 152.8 25.9 154.2 27.3 154.9 29.4 154.9 32L154.9 41.6C154.9 42.8 153.9 43.8 152.7 43.8 151.5 43.8 150.5 42.9 150.5 41.9L150.5 41.2C149.2 42.8 147.1 44 144.1 44 141.1 44 137.2 41.9 137.2 37.9" fill="#FFFFFF"/><path d="M157.8 26.1C157.8 24.8 158.8 23.8 160 23.8 161.2 23.8 162.3 24.8 162.3 26.1L162.3 28.1C163.3 25.6 165.3 23.8 167.2 23.8 169.1 23.8 169.4 24.7 169.4 26 169.4 27.3 168.6 28 167.6 28.2 164.4 28.8 162.2 31.2 162.2 35.8L162.2 41.6C162.2 42.8 161.2 43.8 159.9 43.8 158.6 43.8 157.7 42.8 157.7 41.6L157.7 26.1 157.7 26.1Z" fill="#FFFFFF"/><path d="M171 26.1C171 24.8 172 23.8 173.2 23.8 174.4 23.8 175.5 24.8 175.5 26.1L175.5 27C176.8 25.2 178.5 23.6 181.5 23.6 184.5 23.6 186.3 25 187.4 27.1 189 25 191 23.6 194 23.6 198.3 23.6 200.9 26.3 200.9 31.1L200.9 41.6C200.9 42.9 199.9 43.8 198.7 43.8 197.5 43.8 196.4 42.8 196.4 41.6L196.4 32.5C196.4 29.4 195 27.7 192.4 27.7 189.8 27.7 188.2 29.4 188.2 32.6L188.2 41.6C188.2 42.9 187.2 43.8 186 43.8 184.8 43.8 183.7 42.8 183.7 41.6L183.7 32.5C183.7 29.5 182.2 27.7 179.7 27.7 177.2 27.7 175.5 29.6 175.5 32.6L175.5 41.6C175.5 42.9 174.5 43.8 173.2 43.8 171.9 43.8 171 42.8 171 41.6L171 26.1 171 26.1C171 26.1 171 26.1 171 26.1Z" fill="#FFFFFF"/><path d="M215.9 36.6 215.9 35.3C214.8 34.9 213.2 34.5 211.4 34.5 208.5 34.5 206.8 35.7 206.8 37.8L206.8 37.8C206.8 39.8 208.5 40.8 210.6 40.8 212.7 40.8 215.8 39.1 215.8 36.6M202.5 38 202.5 38C202.5 33.7 205.8 31.6 210.6 31.6 215.4 31.6 214.4 31.9 215.9 32.4L215.9 31.9C215.9 29.1 214.2 27.6 211 27.6 207.8 27.6 207.9 27.9 206.7 28.4 206.4 28.4 206.2 28.5 206 28.5 205 28.5 204.1 27.7 204.1 26.6 204.1 25.5 204.7 25.1 205.3 24.8 207.2 24.1 209.1 23.7 211.6 23.7 214.1 23.7 216.7 24.5 218.1 25.9 219.5 27.3 220.2 29.4 220.2 32L220.2 41.6C220.2 42.8 219.2 43.8 218 43.8 216.8 43.8 215.8 42.9 215.8 41.9L215.8 41.2C214.5 42.8 212.4 44 209.4 44 206.4 44 202.5 41.9 202.5 37.9" fill="#FFFFFF"/><path d="M21.5 1.9C21.5 2.7 20.8 3.4 20 3.4 19.2 3.4 18.5 2.7 18.5 1.9 18.5 1.1 19.2 0.4 20 0.4 20.8 0.4 21.5 1.1 21.5 1.9" fill="#FFFFFF"/><path d="M25.3 1.9C25.3 2.7 24.6 3.4 23.8 3.4 23 3.4 22.3 2.7 22.3 1.9 22.3 1.1 23 0.4 23.8 0.4 24.6 0.4 25.3 1.1 25.3 1.9" fill="#FFFFFF"/><path d="M31.3 18C30.5 18 29.8 17.3 29.8 16.5 29.8 15.7 30.5 15 31.3 15 32.1 15 32.8 15.7 32.8 16.5 32.8 17.3 32.1 18 31.3 18" fill="#FFFFFF"/><path d="M31.3 21.7C30.5 21.7 29.8 21 29.8 20.2 29.8 19.4 30.5 18.7 31.3 18.7 32.1 18.7 32.8 19.4 32.8 20.2 32.8 21 32.1 21.7 31.3 21.7" fill="#FFFFFF"/><path d="M31.3 25.5C30.4 25.5 29.8 24.8 29.8 24 29.8 23.2 30.5 22.5 31.3 22.5 32.1 22.5 32.8 23.2 32.8 24 32.8 24.8 32.1 25.5 31.3 25.5" fill="#FFFFFF"/><path d="M31.3 29.3C30.4 29.3 29.8 28.6 29.8 27.8 29.8 27 30.5 26.3 31.3 26.3 32.1 26.3 32.8 27 32.8 27.8 32.8 28.6 32.1 29.3 31.3 29.3" fill="#FFFFFF"/><path d="M34.9 18C34.1 18 33.4 17.3 33.4 16.5 33.4 15.7 34.1 15 34.9 15 35.7 15 36.4 15.7 36.4 16.5 36.4 17.3 35.7 18 34.9 18" fill="#FFFFFF"/><path d="M34.9 21.7C34.1 21.7 33.4 21 33.4 20.2 33.4 19.4 34.1 18.7 34.9 18.7 35.7 18.7 36.4 19.4 36.4 20.2 36.4 21 35.7 21.7 34.9 21.7" fill="#FFFFFF"/><path d="M34.9 25.5C34.1 25.5 33.4 24.8 33.4 24 33.4 23.2 34.1 22.5 34.9 22.5 35.7 22.5 36.4 23.2 36.4 24 36.4 24.8 35.7 25.5 34.9 25.5" fill="#FFFFFF"/><path d="M34.9 29.3C34.1 29.3 33.4 28.6 33.4 27.8 33.4 27 34.1 26.3 34.9 26.3 35.7 26.3 36.4 27 36.4 27.8 36.4 28.6 35.7 29.3 34.9 29.3" fill="#FFFFFF"/><path d="M38.6 18C37.8 18 37.1 17.3 37.1 16.5 37.1 15.7 37.8 15 38.6 15 39.4 15 40.1 15.7 40.1 16.5 40.1 17.3 39.4 18 38.6 18" fill="#FFFFFF"/><path d="M38.6 21.7C37.8 21.7 37.1 21 37.1 20.2 37.1 19.4 37.8 18.7 38.6 18.7 39.4 18.7 40.1 19.4 40.1 20.2 40.1 21 39.4 21.7 38.6 21.7" fill="#FFFFFF"/><path d="M38.6 25.5C37.8 25.5 37.1 24.8 37.1 24 37.1 23.2 37.8 22.5 38.6 22.5 39.4 22.5 40.1 23.2 40.1 24 40.1 24.8 39.4 25.5 38.6 25.5" fill="#FFFFFF"/><path d="M38.6 29.3C37.8 29.3 37.1 28.6 37.1 27.8 37.1 27 37.8 26.3 38.6 26.3 39.4 26.3 40.1 27 40.1 27.8 40.1 28.6 39.4 29.3 38.6 29.3" fill="#FFFFFF"/><path d="M42.2 21.7C41.3 21.7 40.7 21 40.7 20.2 40.7 19.4 41.4 18.7 42.2 18.7 43 18.7 43.7 19.4 43.7 20.2 43.7 21 43 21.7 42.2 21.7" fill="#FFFFFF"/><path d="M42.2 25.5C41.3 25.5 40.7 24.8 40.7 24 40.7 23.2 41.4 22.5 42.2 22.5 43 22.5 43.7 23.2 43.7 24 43.7 24.8 43 25.5 42.2 25.5" fill="#FFFFFF"/><path d="M17.8 12.9C17.8 13.7 17.1 14.4 16.3 14.4 15.5 14.4 14.8 13.7 14.8 12.9 14.8 12.1 15.5 11.4 16.3 11.4 17.1 11.4 17.8 12.1 17.8 12.9" fill="#FFFFFF"/><path d="M21.5 12.9C21.5 13.7 20.8 14.4 20 14.4 19.2 14.4 18.5 13.7 18.5 12.9 18.5 12.1 19.2 11.4 20 11.4 20.8 11.4 21.5 12.1 21.5 12.9" fill="#FFFFFF"/><path d="M25.3 12.9C25.3 13.8 24.6 14.4 23.8 14.4 23 14.4 22.3 13.7 22.3 12.9 22.3 12.1 23 11.4 23.8 11.4 24.6 11.4 25.3 12.1 25.3 12.9" fill="#FFFFFF"/><path d="M29.1 12.9C29.1 13.8 28.4 14.4 27.6 14.4 26.8 14.4 26.1 13.7 26.1 12.9 26.1 12.1 26.8 11.4 27.6 11.4 28.4 11.4 29.1 12.1 29.1 12.9" fill="#FFFFFF"/><path d="M17.8 9.2C17.8 10 17.1 10.7 16.3 10.7 15.5 10.7 14.8 10 14.8 9.2 14.8 8.4 15.5 7.7 16.3 7.7 17.1 7.7 17.8 8.4 17.8 9.2" fill="#FFFFFF"/><path d="M21.5 9.2C21.5 10 20.8 10.7 20 10.7 19.2 10.7 18.5 10 18.5 9.2 18.5 8.4 19.2 7.7 20 7.7 20.8 7.7 21.5 8.4 21.5 9.2" fill="#FFFFFF"/><path d="M25.3 9.2C25.3 10 24.6 10.7 23.8 10.7 23 10.7 22.3 10 22.3 9.2 22.3 8.4 23 7.7 23.8 7.7 24.6 7.7 25.3 8.4 25.3 9.2" fill="#FFFFFF"/><path d="M29.1 9.2C29.1 10 28.4 10.7 27.6 10.7 26.8 10.7 26.1 10 26.1 9.2 26.1 8.4 26.8 7.7 27.6 7.7 28.4 7.7 29.1 8.4 29.1 9.2" fill="#FFFFFF"/><path d="M17.8 5.6C17.8 6.4 17.1 7.1 16.3 7.1 15.5 7.1 14.8 6.4 14.8 5.6 14.8 4.8 15.5 4.1 16.3 4.1 17.1 4.1 17.8 4.8 17.8 5.6" fill="#FFFFFF"/><path d="M21.5 5.6C21.5 6.4 20.8 7.1 20 7.1 19.2 7.1 18.5 6.4 18.5 5.6 18.5 4.8 19.2 4.1 20 4.1 20.8 4.1 21.5 4.8 21.5 5.6" fill="#FFFFFF"/><path d="M25.3 5.5C25.3 6.3 24.6 7 23.8 7 23 7 22.3 6.3 22.3 5.5 22.3 4.7 23 4 23.8 4 24.6 4 25.3 4.7 25.3 5.5" fill="#FFFFFF"/><path d="M29.1 5.5C29.1 6.4 28.4 7 27.6 7 26.8 7 26.1 6.3 26.1 5.5 26.1 4.7 26.8 4 27.6 4 28.4 4 29.1 4.7 29.1 5.5" fill="#FFFFFF"/><path d="M26 27.7C26 26.8 26.7 26.2 27.5 26.2 28.3 26.2 29 26.9 29 27.7 29 28.5 28.3 29.2 27.5 29.2 26.7 29.2 26 28.5 26 27.7" fill="#FFFFFF"/><path d="M22.3 27.7C22.3 26.8 23 26.2 23.8 26.2 24.6 26.2 25.3 26.9 25.3 27.7 25.3 28.5 24.6 29.2 23.8 29.2 23 29.2 22.3 28.5 22.3 27.7" fill="#FFFFFF"/><path d="M18.5 27.8C18.5 26.9 19.2 26.3 20 26.3 20.8 26.3 21.5 27 21.5 27.8 21.5 28.6 20.8 29.3 20 29.3 19.2 29.3 18.5 28.6 18.5 27.8" fill="#FFFFFF"/><path d="M14.7 27.8C14.7 26.9 15.4 26.3 16.2 26.3 17 26.3 17.7 27 17.7 27.8 17.7 28.6 17 29.3 16.2 29.3 15.4 29.3 14.7 28.6 14.7 27.8" fill="#FFFFFF"/><path d="M26 20.1C26 19.3 26.7 18.6 27.5 18.6 28.3 18.6 29 19.3 29 20.1 29 20.9 28.3 21.6 27.5 21.6 26.7 21.6 26 20.9 26 20.1" fill="#FFFFFF"/><path d="M22.3 20.1C22.3 19.3 23 18.6 23.8 18.6 24.6 18.6 25.3 19.3 25.3 20.1 25.3 20.9 24.6 21.6 23.8 21.6 23 21.6 22.3 20.9 22.3 20.1" fill="#FFFFFF"/><path d="M18.5 20.1C18.5 19.2 19.2 18.6 20 18.6 20.8 18.6 21.5 19.3 21.5 20.1 21.5 20.9 20.8 21.6 20 21.6 19.2 21.6 18.5 20.9 18.5 20.1" fill="#FFFFFF"/><path d="M14.7 20.1C14.7 19.2 15.4 18.6 16.2 18.6 17 18.6 17.7 19.3 17.7 20.1 17.7 20.9 17 21.6 16.2 21.6 15.4 21.6 14.7 20.9 14.7 20.1" fill="#FFFFFF"/><path d="M26 24C26 23.2 26.7 22.5 27.5 22.5 28.3 22.5 29 23.2 29 24 29 24.8 28.3 25.5 27.5 25.5 26.7 25.5 26 24.8 26 24" fill="#FFFFFF"/><path d="M22.3 24C22.3 23.2 23 22.5 23.8 22.5 24.6 22.5 25.3 23.2 25.3 24 25.3 24.8 24.6 25.5 23.8 25.5 23 25.5 22.3 24.8 22.3 24" fill="#FFFFFF"/><path d="M18.5 24C18.5 23.2 19.2 22.5 20 22.5 20.8 22.5 21.5 23.2 21.5 24 21.5 24.8 20.8 25.5 20 25.5 19.2 25.5 18.5 24.8 18.5 24" fill="#FFFFFF"/><path d="M14.7 24C14.7 23.2 15.4 22.5 16.2 22.5 17 22.5 17.7 23.2 17.7 24 17.7 24.8 17 25.5 16.2 25.5 15.4 25.5 14.7 24.8 14.7 24" fill="#FFFFFF"/><path d="M26 16.5C26 15.7 26.7 15 27.5 15 28.3 15 29 15.7 29 16.5 29 17.3 28.3 18 27.5 18 26.7 18 26 17.3 26 16.5" fill="#FFFFFF"/><path d="M22.3 16.5C22.3 15.7 23 15 23.8 15 24.6 15 25.3 15.7 25.3 16.5 25.3 17.3 24.6 18 23.8 18 23 18 22.3 17.3 22.3 16.5" fill="#FFFFFF"/><path d="M18.5 16.5C18.5 15.6 19.2 15 20 15 20.8 15 21.5 15.7 21.5 16.5 21.5 17.3 20.8 18 20 18 19.2 18 18.5 17.3 18.5 16.5" fill="#FFFFFF"/><path d="M14.7 16.5C14.7 15.6 15.4 15 16.2 15 17 15 17.7 15.7 17.7 16.5 17.7 17.3 17 18 16.2 18 15.4 18 14.7 17.3 14.7 16.5" fill="#FFFFFF"/><path d="M12.5 26.2C13.4 26.2 14 26.9 14 27.7 14 28.5 13.3 29.2 12.5 29.2 11.7 29.2 11 28.5 11 27.7 11 26.9 11.7 26.2 12.5 26.2" fill="#FFFFFF" opacity="0.6"/><path d="M12.5 22.4C13.4 22.4 14 23.1 14 23.9 14 24.7 13.3 25.4 12.5 25.4 11.7 25.4 11 24.7 11 23.9 11 23.1 11.7 22.4 12.5 22.4" fill="#FFFFFF" opacity="0.6"/><path d="M12.5 18.6C13.4 18.6 14 19.3 14 20.1 14 20.9 13.3 21.6 12.5 21.6 11.7 21.6 11 20.9 11 20.1 11 19.3 11.7 18.6 12.5 18.6" fill="#FFFFFF" opacity="0.6"/><path d="M12.5 14.9C13.4 14.9 14 15.6 14 16.4 14 17.2 13.3 17.9 12.5 17.9 11.7 17.9 11 17.2 11 16.4 11 15.6 11.7 14.9 12.5 14.9" fill="#FFFFFF" opacity="0.6"/><path d="M8.9 26.2C9.8 26.2 10.4 26.9 10.4 27.7 10.4 28.5 9.7 29.2 8.9 29.2 8.1 29.2 7.4 28.5 7.4 27.7 7.4 26.9 8.1 26.2 8.9 26.2" fill="#FFFFFF" opacity="0.6"/><path d="M8.9 22.4C9.8 22.4 10.4 23.1 10.4 23.9 10.4 24.7 9.7 25.4 8.9 25.4 8.1 25.4 7.4 24.7 7.4 23.9 7.4 23.1 8.1 22.4 8.9 22.4" fill="#FFFFFF" opacity="0.6"/><path d="M8.9 18.6C9.7 18.6 10.4 19.3 10.4 20.1 10.4 20.9 9.7 21.6 8.9 21.6 8.1 21.6 7.4 20.9 7.4 20.1 7.4 19.3 8.1 18.6 8.9 18.6" fill="#FFFFFF" opacity="0.6"/><path d="M8.9 14.9C9.7 14.9 10.4 15.6 10.4 16.4 10.4 17.2 9.7 17.9 8.9 17.9 8.1 17.9 7.4 17.2 7.4 16.4 7.4 15.6 8.1 14.9 8.9 14.9" fill="#FFFFFF" opacity="0.6"/><path d="M5.2 26.2C6 26.2 6.7 26.9 6.7 27.7 6.7 28.5 6 29.2 5.2 29.2 4.4 29.2 3.7 28.5 3.7 27.7 3.7 26.9 4.4 26.2 5.2 26.2" fill="#FFFFFF" opacity="0.6"/><path d="M5.2 22.4C6 22.4 6.7 23.1 6.7 23.9 6.7 24.7 6 25.4 5.2 25.4 4.4 25.4 3.7 24.7 3.7 23.9 3.7 23.1 4.4 22.4 5.2 22.4" fill="#FFFFFF" opacity="0.6"/><path d="M5.2 18.6C6.1 18.6 6.7 19.3 6.7 20.1 6.7 20.9 6 21.6 5.2 21.6 4.4 21.6 3.7 20.9 3.7 20.1 3.7 19.3 4.4 18.6 5.2 18.6" fill="#FFFFFF" opacity="0.6"/><path d="M5.2 14.9C6.1 14.9 6.7 15.6 6.7 16.4 6.7 17.2 6 17.9 5.2 17.9 4.4 17.9 3.7 17.2 3.7 16.4 3.7 15.6 4.4 14.9 5.2 14.9" fill="#FFFFFF" opacity="0.6"/><path d="M1.5 22.4C2.3 22.4 3 23.1 3 23.9 3 24.7 2.3 25.4 1.5 25.4 0.7 25.4 0 24.8 0 24 0 23.2 0.7 22.5 1.5 22.5" fill="#FFFFFF" opacity="0.6"/><path d="M1.5 18.6C2.3 18.6 3 19.3 3 20.1 3 20.9 2.3 21.6 1.5 21.6 0.7 21.6 0 20.9 0 20.1 0 19.3 0.7 18.6 1.5 18.6" fill="#FFFFFF" opacity="0.6"/><path d="M26 31.4C26 30.5 26.7 29.9 27.5 29.9 28.3 29.9 29 30.6 29 31.4 29 32.2 28.3 32.9 27.5 32.9 26.7 32.9 26 32.2 26 31.4" fill="#FFFFFF" opacity="0.6"/><path d="M22.3 31.4C22.3 30.5 23 29.9 23.8 29.9 24.6 29.9 25.3 30.6 25.3 31.4 25.3 32.2 24.6 32.9 23.8 32.9 23 32.9 22.3 32.2 22.3 31.4" fill="#FFFFFF" opacity="0.6"/><path d="M18.5 31.4C18.5 30.6 19.2 29.9 20 29.9 20.8 29.9 21.5 30.6 21.5 31.4 21.5 32.2 20.8 32.9 20 32.9 19.2 32.9 18.5 32.2 18.5 31.4" fill="#FFFFFF" opacity="0.6"/><path d="M14.7 31.4C14.7 30.6 15.4 29.9 16.2 29.9 17 29.9 17.7 30.6 17.7 31.4 17.7 32.2 17 32.9 16.2 32.9 15.4 32.9 14.7 32.2 14.7 31.4" fill="#FFFFFF" opacity="0.6"/><path d="M26 35C26 34.2 26.7 33.5 27.5 33.5 28.3 33.5 29 34.2 29 35 29 35.8 28.3 36.5 27.5 36.5 26.7 36.5 26 35.8 26 35" fill="#FFFFFF" opacity="0.6"/><path d="M22.3 35C22.3 34.2 23 33.5 23.8 33.5 24.6 33.5 25.3 34.2 25.3 35 25.3 35.8 24.6 36.5 23.8 36.5 23 36.5 22.3 35.8 22.3 35" fill="#FFFFFF" opacity="0.6"/><path d="M18.5 35C18.5 34.1 19.2 33.5 20 33.5 20.8 33.5 21.5 34.2 21.5 35 21.5 35.8 20.8 36.5 20 36.5 19.2 36.5 18.5 35.8 18.5 35" fill="#FFFFFF" opacity="0.6"/><path d="M14.7 35C14.7 34.1 15.4 33.5 16.2 33.5 17 33.5 17.7 34.2 17.7 35 17.7 35.8 17 36.5 16.2 36.5 15.4 36.5 14.7 35.8 14.7 35" fill="#FFFFFF" opacity="0.6"/><path d="M26 38.7C26 37.8 26.7 37.2 27.5 37.2 28.3 37.2 29 37.9 29 38.7 29 39.5 28.3 40.2 27.5 40.2 26.7 40.2 26 39.5 26 38.7" fill="#FFFFFF" opacity="0.6"/><path d="M22.3 38.7C22.3 37.9 23 37.2 23.8 37.2 24.6 37.2 25.3 37.9 25.3 38.7 25.3 39.5 24.6 40.2 23.8 40.2 23 40.2 22.3 39.5 22.3 38.7" fill="#FFFFFF" opacity="0.6"/><path d="M18.5 38.7C18.5 37.9 19.2 37.2 20 37.2 20.8 37.2 21.5 37.9 21.5 38.7 21.5 39.5 20.8 40.2 20 40.2 19.2 40.2 18.5 39.5 18.5 38.7" fill="#FFFFFF" opacity="0.6"/><path d="M14.7 38.7C14.7 37.9 15.4 37.2 16.2 37.2 17 37.2 17.7 37.9 17.7 38.7 17.7 39.5 17 40.2 16.2 40.2 15.4 40.2 14.7 39.5 14.7 38.7" fill="#FFFFFF" opacity="0.6"/><path d="M22.3 42.3C22.3 41.5 23 40.8 23.8 40.8 24.6 40.8 25.3 41.5 25.3 42.3 25.3 43.1 24.6 43.8 23.8 43.8 23 43.8 22.3 43.1 22.3 42.3" fill="#FFFFFF" opacity="0.6"/><path d="M18.5 42.3C18.5 41.5 19.2 40.8 20 40.8 20.8 40.8 21.5 41.5 21.5 42.3 21.5 43.1 20.8 43.8 20 43.8 19.2 43.8 18.5 43.1 18.5 42.3" fill="#FFFFFF" opacity="0.6"/><path d="M52.8 5.5 52.8 5.5C52.8 2.6 54.9 0 58.1 0 61.3 0 60.7 0.4 61.7 1.1 61.8 1.2 61.9 1.4 61.9 1.6 61.9 1.9 61.6 2.2 61.3 2.2 61 2.2 61 2.2 60.9 2.1 60.1 1.5 59.3 1.1 58 1.1 55.7 1.1 54 3.1 54 5.4L54 5.4C54 8 55.6 9.8 58.2 9.8 60.8 9.8 60.5 9.3 61.3 8.7L61.3 6.1 58.5 6.1C58.2 6.1 58 5.9 58 5.6 58 5.3 58.2 5.1 58.5 5.1L61.9 5.1C62.2 5.1 62.5 5.4 62.5 5.7L62.5 8.9C62.5 9.2 62.4 9.4 62.1 9.6 61.1 10.3 59.8 10.9 58.3 10.9 55 10.9 52.9 8.5 52.9 5.5L52.9 5.5Z" fill="#FFFFFF"/><path d="M65.9 0.8C65.9 0.5 66.2 0.2 66.5 0.2L70.5 0.2C71.8 0.2 72.8 0.6 73.5 1.3 74 1.8 74.3 2.6 74.3 3.4L74.3 3.4C74.3 5.2 73.1 6.2 71.5 6.5L74.1 9.9C74.2 10 74.3 10.2 74.3 10.3 74.3 10.6 74 10.9 73.7 10.9 73.4 10.9 73.3 10.8 73.1 10.6L70.1 6.7 67.1 6.7 67.1 10.3C67.1 10.6 66.8 10.9 66.5 10.9 66.2 10.9 65.9 10.6 65.9 10.3L65.9 0.8 65.9 0.8ZM70.3 5.6C71.9 5.6 73 4.8 73 3.4L73 3.4C73 2.1 72 1.3 70.3 1.3L67 1.3 67 5.6 70.2 5.6Z" fill="#FFFFFF"/><path d="M77.4 6.3 77.4 0.7C77.4 0.4 77.7 0.1 78 0.1 78.3 0.1 78.6 0.4 78.6 0.7L78.6 6.2C78.6 8.5 79.8 9.8 81.8 9.8 83.8 9.8 85 8.6 85 6.3L85 0.7C85 0.4 85.3 0.1 85.6 0.1 85.9 0.1 86.2 0.4 86.2 0.7L86.2 6.2C86.2 9.3 84.4 10.9 81.8 10.9 79.2 10.9 77.4 9.3 77.4 6.3L77.4 6.3Z" fill="#FFFFFF"/><path d="M89.8 0.8C89.8 0.5 90.1 0.2 90.4 0.2L93.8 0.2C96.2 0.2 97.8 1.5 97.8 3.6L97.8 3.6C97.8 5.9 95.9 7.1 93.6 7.1L91 7.1 91 10.3C91 10.6 90.7 10.9 90.4 10.9 90.1 10.9 89.8 10.6 89.8 10.3L89.8 0.8 89.8 0.8ZM93.6 5.9C95.4 5.9 96.5 5 96.5 3.6L96.5 3.6C96.5 2.1 95.4 1.3 93.7 1.3L91 1.3 91 6 93.6 6Z" fill="#FFFFFF"/></g></svg>